<?xml version="1.0" standalone="no"?>
<!DOCTYPE svg PUBLIC "-//W3C//DTD SVG 20010904//EN"
 "http://www.w3.org/TR/2001/REC-SVG-20010904/DTD/svg10.dtd">
<svg version="1.0" xmlns="http://www.w3.org/2000/svg"
 width="178.000000pt" height="145.000000pt" viewBox="0 0 178.000000 145.000000"
 preserveAspectRatio="xMidYMid meet">

<g transform="translate(0.000000,145.000000) scale(0.100000,-0.100000)"
fill="#000000" stroke="none">
<path d="M833 1310 c-52 -11 -54 -12 -361 -183 -138 -78 -254 -149 -257 -158
-10 -29 5 -46 68 -80 34 -19 65 -35 69 -37 4 -2 8 21 10 50 l3 53 293 3 292 2
0 -30 0 -30 -265 0 -265 0 0 -43 0 -43 173 -96 c94 -53 190 -101 212 -107 56
-15 143 -14 201 4 27 8 168 82 314 163 255 141 265 148 265 177 0 29 -11 36
-255 174 -140 79 -275 152 -300 161 -57 23 -143 31 -197 20z"/>
<path d="M370 763 c0 -38 -7 -106 -15 -153 -8 -47 -15 -133 -15 -192 l0 -108
50 0 50 0 0 103 c0 56 -7 143 -15 192 -8 50 -15 118 -15 151 0 58 -8 74 -36
74 -2 0 -4 -30 -4 -67z"/>
<path d="M542 540 c-6 -44 -19 -94 -27 -111 -24 -46 -14 -59 47 -59 68 0 153
-40 231 -109 101 -89 108 -89 212 -6 87 69 176 115 225 115 53 0 60 12 39 73
-10 29 -21 76 -25 105 -3 28 -10 52 -16 52 -5 0 -41 -18 -81 -40 -189 -103
-346 -92 -563 41 l-31 19 -11 -80z"/>
</g>
</svg>
